HIERARCHY
ROOT joint_Root
{
	OFFSET 0.0 0.0 0.0
	CHANNELS 6 Xposition Yposition Zposition Zrotation Xrotation Yrotation 
	JOINT Hips
	{
		OFFSET 4.5925 91.4895 -427.239
		CHANNELS 6 Xposition Yposition Zposition Zrotation Xrotation Yrotation 
		JOINT Spine
		{
			OFFSET 15.7357 0.0 0.0
			CHANNELS 6 Xposition Yposition Zposition Zrotation Xrotation Yrotation 
			JOINT Chest
			{
				OFFSET 8.98455 -0.406207 0.0
				CHANNELS 6 Xposition Yposition Zposition Zrotation Xrotation Yrotation 
				JOINT Neck
				{
					OFFSET 16.3773 0.0 0.0
					CHANNELS 6 Xposition Yposition Zposition Zrotation Xrotation Yrotation 
					JOINT Head
					{
						OFFSET 6.45672 0.0 0.0
						CHANNELS 6 Xposition Yposition Zposition Zrotation Xrotation Yrotation 
						End Site
						{
							OFFSET 0.0 0.0 0.0
						}
					}
				}
				JOINT Shoulder_L
				{
					OFFSET 12.9942 -0.242716 4.98039
					CHANNELS 6 Xposition Yposition Zposition Zrotation Xrotation Yrotation 
					JOINT UpperArm_L
					{
						OFFSET 5.34809 0.0 0.0
						CHANNELS 6 Xposition Yposition Zposition Zrotation Xrotation Yrotation 
						JOINT LowerArm_L
						{
							OFFSET 24.3286 1.87007e-05 0.0
							CHANNELS 6 Xposition Yposition Zposition Zrotation Xrotation Yrotation 
							JOINT Hand_L
							{
								OFFSET 22.2916 0.0 0.0
								CHANNELS 6 Xposition Yposition Zposition Zrotation Xrotation Yrotation 
								End Site
								{
									OFFSET 0.0 0.0 0.0
								}
							}
						}
					}
				}
				JOINT Shoulder_R
				{
					OFFSET 12.9945 -0.242716 -4.98039
					CHANNELS 6 Xposition Yposition Zposition Zrotation Xrotation Yrotation 
					JOINT UpperArm_R
					{
						OFFSET -5.34813 0.0 0.0
						CHANNELS 6 Xposition Yposition Zposition Zrotation Xrotation Yrotation 
						JOINT LowerArm_R
						{
							OFFSET -24.3289 0.000322201 0.0
							CHANNELS 6 Xposition Yposition Zposition Zrotation Xrotation Yrotation 
							JOINT Hand_R
							{
								OFFSET -22.2915 -0.000108084 0.0
								CHANNELS 6 Xposition Yposition Zposition Zrotation Xrotation Yrotation 
								End Site
								{
									OFFSET 0.0 0.0 0.0
								}
							}
						}
					}
				}
			}
		}
		JOINT UpperLeg_L
		{
			OFFSET -2.19248 -6.46944 0.0
			CHANNELS 6 Xposition Yposition Zposition Zrotation Xrotation Yrotation 
			JOINT LowerLeg_L
			{
				OFFSET 39.0811 0.0 -1.23785e-05
				CHANNELS 6 Xposition Yposition Zposition Zrotation Xrotation Yrotation 
				JOINT Foot_L
				{
					OFFSET 40.9854 0.0 -1.26872e-05
					CHANNELS 6 Xposition Yposition Zposition Zrotation Xrotation Yrotation 
					JOINT Toes_L
					{
						OFFSET 11.7543 0.0 0.0
						CHANNELS 6 Xposition Yposition Zposition Zrotation Xrotation Yrotation 
						End Site
						{
							OFFSET 0.0 0.0 0.0
						}
					}
				}
			}
		}
		JOINT UpperLeg_R
		{
			OFFSET -2.19251 6.46944 0.0
			CHANNELS 6 Xposition Yposition Zposition Zrotation Xrotation Yrotation 
			JOINT LowerLeg_R
			{
				OFFSET -39.0811 -0.00228153 -0.0401928
				CHANNELS 6 Xposition Yposition Zposition Zrotation Xrotation Yrotation 
				JOINT Foot_R
				{
					OFFSET -40.9854 0.0 0.0
					CHANNELS 6 Xposition Yposition Zposition Zrotation Xrotation Yrotation 
					JOINT Toes_R
					{
						OFFSET -11.7543 0.0 0.0
						CHANNELS 6 Xposition Yposition Zposition Zrotation Xrotation Yrotation 
						End Site
						{
							OFFSET 0.0 0.0 0.0
						}
					}
				}
			}
		}
	}
}
MOTION
Frames:	4
Frame Time:	0.0333333
0.000000 0.000000 0.000000 0.000000 0.000000 -0.000000 0.208732 83.602400 -1.369500 87.996500 -0.797841 11.026600 15.735700 0.000005 -0.000001 86.541000 81.775100 -85.901000 8.984550 -0.406207 -0.000000 8.660560 -0.982619 1.353400 16.377300 -0.000001 -0.000001 -2.607120 -5.208020 2.194890 6.456720 -0.000001 -0.000000 -3.166840 -4.713420 1.775480 12.994200 -0.242716 4.980390 -90.807800 2.885080 -74.348400 5.348090 -0.000007 -0.000001 -60.802800 37.897100 -11.014400 24.328600 0.000019 0.000005 8.655110 27.273200 -18.379200 22.291600 -0.000001 0.000005 3.383170 5.227710 2.022610 12.994500 -0.242716 -4.980390 89.047000 5.829400 -80.697900 -5.348130 -0.000001 -0.000004 -63.298800 41.266100 -8.680950 -24.328900 0.000322 -0.000009 0.896120 14.618900 -3.559390 -22.291500 -0.000108 -0.000004 -16.509500 5.104360 5.153830 -2.192480 -6.469440 -0.000000 -174.018000 -8.239440 -13.953900 39.081100 -0.000007 -0.000012 -0.552865 0.335302 58.765200 40.985400 -0.000006 -0.000013 0.973954 3.407970 -83.838300 11.754300 -0.000000 0.000003 -0.000307 -0.002650 -16.676200 -2.192510 6.469440 -0.000001 177.594000 10.889300 167.432000 -39.081100 -0.002282 -0.040193 0.087677 -0.053216 57.787400 -40.985400 0.000008 0.000006 5.801880 2.933670 -84.053000 -11.754300 -0.000006 -0.000006 -0.096126 -0.124518 -17.001100
0.000000 0.000000 0.000000 0.000000 0.000000 -0.000000 0.587553 86.125400 -0.547354 88.952000 -0.993582 11.517100 15.735700 0.000005 -0.000001 87.912000 83.195200 -87.500100 8.984550 -0.406207 -0.000000 5.836550 -0.501515 0.848305 16.377300 -0.000001 -0.000001 1.994160 -4.923270 2.243030 6.456720 -0.000001 -0.000000 -0.056578 -4.853010 0.651016 12.994200 -0.242716 4.980390 -90.498700 1.694300 -73.594200 5.348090 -0.000007 -0.000001 -49.489500 32.853000 -26.920000 24.328600 0.000019 0.000005 12.691900 28.619000 -25.178200 22.291600 -0.000001 0.000005 7.550050 5.252230 1.375740 12.994500 -0.242716 -4.980390 89.260900 4.259750 -80.145000 -5.348130 -0.000001 -0.000004 -52.608100 39.938400 -24.499900 -24.328900 0.000322 -0.000009 1.731730 10.842300 -9.151940 -22.291500 -0.000108 -0.000004 -4.930090 5.294050 0.410124 -2.192480 -6.469440 -0.000000 -174.865000 -9.537020 -8.552480 39.081100 -0.000007 -0.000012 -0.408126 0.338188 50.354500 40.985400 -0.000006 -0.000013 1.359950 4.237570 -80.317400 11.754300 -0.000000 0.000003 -0.000193 -0.001799 -16.645500 -2.192510 6.469440 -0.000001 175.536000 12.341400 172.391000 -39.081100 -0.002282 -0.040193 0.063882 -0.050712 50.092600 -40.985400 0.000008 0.000006 5.902760 5.495830 -80.455400 -11.754300 -0.000006 -0.000006 -0.149644 -0.194435 -17.352900
0.000000 0.000000 0.000000 0.000000 0.000000 -0.000000 0.819578 88.225300 0.102243 89.384900 -1.459420 11.007000 15.735700 0.000005 -0.000001 88.651200 84.816400 -88.254100 8.984550 -0.406207 -0.000000 2.599420 -0.261715 0.799436 16.377300 -0.000001 -0.000001 6.211640 -4.487570 2.164420 6.456720 -0.000001 -0.000000 3.500660 -4.486720 -0.673314 12.994200 -0.242716 4.980390 -89.942500 -0.197893 -73.730400 5.348090 -0.000007 -0.000001 -42.318400 21.702800 -40.047600 24.328600 0.000019 0.000005 15.151900 26.684600 -31.096000 22.291600 -0.000001 0.000005 8.417840 5.260450 1.155670 12.994500 -0.242716 -4.980390 89.615200 2.142860 -79.818300 -5.348130 -0.000001 -0.000004 -42.606400 31.325500 -39.870400 -24.328900 0.000322 -0.000009 3.047240 9.513490 -17.869700 -22.291500 -0.000108 -0.000004 4.895220 5.340850 -1.109580 -2.192480 -6.469440 -0.000000 -175.118000 -11.126100 -4.460480 39.081100 -0.000007 -0.000012 -0.288832 0.316933 42.344700 40.985400 -0.000006 -0.000013 1.579630 5.339710 -76.860300 11.754300 -0.000000 0.000003 -0.000167 -0.001588 -16.637800 -2.192510 6.469440 -0.000001 174.378000 13.845600 176.039000 -39.081100 -0.002282 -0.040193 0.042577 -0.042680 42.643600 -40.985400 0.000008 0.000006 5.929290 8.140240 -76.839200 -11.754300 -0.000006 -0.000006 -0.118850 -0.164976 -17.755000
0.000000 0.000000 0.000000 0.000000 0.000000 -0.000000 1.019500 89.552900 0.385598 89.407900 -1.831180 10.079200 15.735700 0.000005 -0.000001 86.771700 86.076000 -86.260500 8.984550 -0.406207 -0.000000 0.071953 -0.476166 1.021930 16.377300 -0.000001 -0.000001 7.767380 -3.986780 2.246690 6.456720 -0.000001 -0.000000 6.215720 -3.908790 -1.913660 12.994200 -0.242716 4.980390 -89.228700 -2.746170 -74.302900 5.348090 -0.000007 -0.000001 -38.591500 7.106930 -49.958400 24.328600 0.000019 0.000005 15.786700 21.934100 -37.128600 22.291600 -0.000001 0.000005 10.636800 5.287950 0.425612 12.994500 -0.242716 -4.980390 90.054600 -0.303271 -79.808000 -5.348130 -0.000001 -0.000004 -37.265500 17.057800 -52.260100 -24.328900 0.000322 -0.000009 4.337100 7.976260 -28.657000 -22.291500 -0.000108 -0.000004 10.081700 5.404000 -2.965850 -2.192480 -6.469440 -0.000000 -175.334000 -11.765100 -2.295290 39.081100 -0.000007 -0.000012 -0.228607 0.307420 36.636100 40.985400 -0.000006 -0.000013 1.509850 5.611470 -74.240500 11.754300 -0.000000 0.000003 -0.000120 -0.001198 -16.623400 -2.192510 6.469440 -0.000001 173.966000 15.259900 178.186000 -39.081100 -0.002282 -0.040193 0.029777 -0.035245 36.929800 -40.985400 0.000008 0.000006 5.970110 10.201300 -74.354700 -11.754300 -0.000006 -0.000006 -0.002195 -0.031128 -17.838900
